<?xml version="1.0" standalone="no"?>
<!DOCTYPE svg PUBLIC "-//W3C//DTD SVG 20010904//EN"
 "http://www.w3.org/TR/2001/REC-SVG-20010904/DTD/svg10.dtd">
<svg version="1.0" xmlns="http://www.w3.org/2000/svg"
 width="379.000000pt" height="97.000000pt" viewBox="0 0 379.000000 97.000000"
 preserveAspectRatio="xMidYMid meet">

<g transform="translate(0.000000,97.000000) scale(0.100000,-0.100000)"
fill="#000000" stroke="none">
<path d="M481 730 c-130 -62 -271 -172 -271 -211 0 -9 8 -27 18 -39 l19 -23
125 13 c180 19 241 2 225 -62 -14 -52 -134 -148 -187 -148 -30 0 -59 35 -66
80 -6 40 -17 50 -29 29 -8 -12 30 -106 53 -131 11 -13 30 -18 70 -18 54 0 57
2 107 53 58 60 98 134 93 173 -2 15 -15 36 -31 48 -25 19 -42 21 -150 21 -67
0 -136 -3 -152 -7 -17 -4 -37 -3 -45 2 -21 13 16 49 110 109 118 76 183 105
178 79 -4 -20 43 -16 56 5 15 23 -3 51 -35 55 -13 1 -53 -11 -88 -28z m89 -10
c0 -5 -2 -10 -4 -10 -3 0 -8 5 -11 10 -3 6 -1 10 4 10 6 0 11 -4 11 -10z m-97
-227 c-13 -2 -35 -2 -50 0 -16 2 -5 4 22 4 28 0 40 -2 28 -4z m-100 -10 c-7
-2 -21 -2 -30 0 -10 3 -4 5 12 5 17 0 24 -2 18 -5z m50 -250 c-7 -2 -19 -2
-25 0 -7 3 -2 5 12 5 14 0 19 -2 13 -5z"/>
<path d="M1724 714 c-9 -35 6 -513 17 -519 4 -3 18 13 30 37 19 36 21 52 15
122 -3 45 -9 139 -12 211 -3 72 -7 140 -10 153 -6 30 -32 28 -40 -4z m23 -256
c-3 -8 -6 -5 -6 6 -1 11 2 17 5 13 3 -3 4 -12 1 -19z m10 -155 c-2 -16 -4 -5
-4 22 0 28 2 40 4 28 2 -13 2 -35 0 -50z"/>
<path d="M3031 668 c29 -92 41 -154 46 -239 l4 -76 -34 -22 c-41 -25 -59 -27
-50 -5 5 14 1 15 -25 9 -27 -6 -37 -2 -62 23 -63 64 -19 192 66 192 9 0 31
-15 50 -34 19 -19 34 -28 34 -21 0 7 -7 18 -15 25 -8 7 -12 17 -9 22 11 17
-28 48 -60 48 -42 0 -65 -15 -39 -24 16 -7 15 -9 -9 -22 -31 -16 -49 -47 -68
-116 -11 -42 -10 -50 7 -80 35 -59 98 -74 166 -38 l37 20 0 -21 c0 -14 5 -19
16 -17 14 3 16 19 15 118 -1 104 -5 124 -38 218 -39 111 -64 142 -32 40z
m-164 -280 c-3 -8 -6 -5 -6 6 -1 11 2 17 5 13 3 -3 4 -12 1 -19z m17 -34 c3
-8 2 -12 -4 -9 -6 3 -10 10 -10 16 0 14 7 11 14 -7z"/>
<path d="M1360 701 c-8 -6 -26 -7 -40 -4 -21 4 -32 -2 -53 -27 -37 -44 -36
-85 3 -105 29 -15 30 -18 29 -83 0 -37 -6 -99 -13 -139 -13 -76 -9 -100 18
-90 10 4 16 18 16 39 0 31 16 164 26 216 3 12 20 39 39 60 43 48 52 84 31 117
-17 26 -32 30 -56 16z m15 -31 c-3 -5 -12 -10 -18 -10 -7 0 -6 4 3 10 19 12
23 12 15 0z m-2 -48 c-24 -32 -51 -38 -78 -18 -19 14 -19 16 -3 32 17 17 18
17 32 -1 15 -20 15 -20 37 2 30 30 38 20 12 -15z m2 -42 c-10 -11 -22 -20 -28
-20 -5 0 1 9 14 20 31 25 37 25 14 0z m-45 -30 c0 -5 -2 -10 -4 -10 -3 0 -8 5
-11 10 -3 6 -1 10 4 10 6 0 11 -4 11 -10z"/>
<path d="M3250 700 c-8 -5 -25 -7 -37 -3 -23 5 -32 -10 -13 -22 6 -4 0 -15
-16 -27 -18 -15 -25 -28 -21 -44 3 -17 0 -24 -12 -24 -12 -1 -12 -3 4 -12 11
-6 26 -18 33 -26 11 -14 12 -14 12 1 0 9 5 17 10 17 23 0 -6 -267 -33 -298 -9
-12 -8 -14 8 -11 11 3 21 11 21 19 30 263 28 253 69 298 43 48 52 84 31 117
-18 27 -32 30 -56 15z m25 -20 c3 -5 1 -10 -4 -10 -6 0 -11 5 -11 10 0 6 2 10
4 10 3 0 8 -4 11 -10z m-5 -45 c-15 -18 1 -20 18 -3 20 20 14 -14 -8 -42 -15
-20 -21 -23 -31 -12 -7 6 -20 12 -29 12 -9 0 -25 6 -36 14 -18 14 -18 16 -2
32 17 17 18 17 32 -1 15 -20 15 -20 37 2 25 24 40 23 19 -2z"/>
<path d="M2228 668 c-36 -23 -48 -37 -48 -55 0 -29 56 -330 66 -356 13 -34 29
-10 32 46 2 32 -6 93 -18 142 -11 48 -20 100 -20 115 0 53 34 101 61 85 20
-13 31 -92 24 -186 -7 -97 -7 -98 15 -92 26 7 35 29 44 108 9 69 26 135 36
135 4 0 11 -19 15 -42 8 -43 8 -43 15 -13 4 17 5 -17 3 -75 -6 -116 -13 -146
-13 -56 0 36 -4 55 -10 51 -13 -8 -13 -245 0 -265 20 -33 29 12 36 188 7 195
-1 255 -37 288 -24 22 -34 13 -19 -16 10 -19 9 -26 -9 -43 l-21 -21 -1 29 c0
17 -3 24 -6 17 -3 -8 -14 -2 -33 18 -35 37 -52 37 -112 -2z m56 -11 c-45 -24
-64 -50 -65 -91 l-1 -41 -12 50 -11 50 39 27 c22 14 46 24 54 21 11 -5 10 -8
-4 -16z m80 -147 c-9 -123 -20 -135 -19 -23 0 54 -3 112 -8 128 l-8 30 21 -25
c19 -23 20 -33 14 -110z m-127 -72 c-3 -8 -6 -5 -6 6 -1 11 2 17 5 13 3 -3 4
-12 1 -19z m10 -50 c-3 -8 -6 -5 -6 6 -1 11 2 17 5 13 3 -3 4 -12 1 -19z m200
-120 c-2 -18 -4 -6 -4 27 0 33 2 48 4 33 2 -15 2 -42 0 -60z"/>
<path d="M861 594 c-29 -24 -32 -24 -53 -10 -69 48 -148 -19 -148 -126 0 -59
11 -71 67 -77 42 -5 50 -10 64 -39 l17 -33 86 117 c47 63 86 119 86 122 0 4
-9 22 -20 40 -24 40 -57 42 -99 6z m79 -37 c0 -7 -19 -36 -42 -63 -24 -27 -50
-61 -60 -74 -14 -22 -19 -23 -37 -12 -11 6 -39 12 -62 12 l-42 0 6 46 c9 82
71 112 87 43 4 -15 14 -25 27 -27 17 -3 27 6 43 38 11 22 27 43 35 47 8 3 12
10 9 15 -4 6 3 5 15 -1 11 -7 21 -17 21 -24z m-173 7 c-3 -3 -12 -4 -19 -1 -8
3 -5 6 6 6 11 1 17 -2 13 -5z m88 -14 c-3 -5 -12 -10 -18 -10 -7 0 -6 4 3 10
19 12 23 12 15 0z m-15 -174 c0 -2 -7 -7 -16 -10 -8 -3 -12 -2 -9 4 6 10 25
14 25 6z"/>
<path d="M1059 587 c-20 -13 -46 -45 -62 -77 -24 -46 -28 -64 -25 -113 4 -47
10 -63 31 -85 24 -23 36 -27 86 -27 70 0 114 26 119 68 4 34 -5 34 -39 1 -38
-36 -96 -42 -131 -14 -39 30 -38 87 1 156 45 78 129 103 101 30 -15 -40 -12
-76 6 -83 26 -10 44 25 44 83 0 43 -4 56 -22 68 -31 22 -69 20 -109 -7z"/>
<path d="M1506 560 c-100 -88 -100 -247 0 -266 20 -4 51 -2 70 4 32 10 33 9
36 -22 2 -23 8 -32 25 -34 17 -3 24 3 29 23 4 15 2 31 -5 38 -17 17 -13 48 9
82 25 38 27 116 3 155 -34 59 -112 68 -167 20z m53 -3 c-2 -1 -13 -9 -24 -17
-19 -14 -19 -14 -6 3 7 9 18 17 24 17 6 0 8 -1 6 -3z m59 -93 l3 -82 -34 -21
c-38 -23 -87 -27 -105 -9 -17 17 -15 64 4 104 22 46 80 96 107 92 20 -3 22
-10 25 -84z m29 4 c-2 -13 -4 -3 -4 22 0 25 2 35 4 23 2 -13 2 -33 0 -45z
m-28 -133 c-8 -7 -32 -16 -54 -19 l-40 -6 35 11 c19 6 41 17 49 24 8 8 17 12
20 10 3 -3 -2 -12 -10 -20z"/>
<path d="M3444 574 c4 -10 -3 -23 -19 -36 -63 -49 -98 -162 -64 -205 11 -14 9
-14 -9 1 -20 17 -22 18 -16 3 14 -38 86 -57 138 -37 23 8 26 7 26 -12 0 -21 0
-21 15 -2 14 19 14 19 15 -1 0 -12 -5 -26 -12 -33 -9 -9 -7 -12 10 -12 25 0
42 44 23 63 -17 17 -13 48 9 82 38 58 18 169 -36 194 -14 6 -39 11 -56 11 -23
0 -29 -3 -24 -16z m66 -41 c0 -15 2 -16 10 -3 16 26 25 0 25 -75 0 -59 -4 -79
-21 -102 -23 -30 -64 -44 -64 -21 0 10 -10 13 -35 10 -19 -2 -42 1 -50 8 -35
29 -8 118 51 170 39 34 84 41 84 13z"/>
<path d="M2646 571 c-4 -5 0 -12 6 -15 10 -5 10 -7 1 -12 -7 -3 -23 -14 -35
-25 -22 -17 -21 -17 17 1 21 11 47 20 57 20 23 0 68 -21 68 -32 0 -5 5 -6 10
-3 13 8 13 -1 0 -26 -11 -19 -59 -49 -81 -49 -8 0 -7 5 2 17 13 15 11 16 -22
9 -20 -3 -49 -2 -64 4 -38 14 -48 4 -23 -25 26 -30 70 -33 126 -10 84 36 104
85 51 129 -31 26 -101 37 -113 17z m-31 -141 c3 -6 -1 -7 -9 -4 -18 7 -21 14
-7 14 6 0 13 -4 16 -10z"/>
<path d="M2541 410 c-2 -23 -3 -23 -10 -5 -7 17 -8 16 -15 -9 -5 -19 -2 -36 9
-52 22 -33 91 -75 135 -81 44 -6 110 19 110 43 0 17 3 17 -100 -2 -15 -3 -44
5 -70 18 -41 21 -46 27 -51 68 -3 26 -7 34 -8 20z"/>
</g>
</svg>
